<?xml version="1.0" standalone="no"?>
<!DOCTYPE svg PUBLIC "-//W3C//DTD SVG 20010904//EN"
 "http://www.w3.org/TR/2001/REC-SVG-20010904/DTD/svg10.dtd">
<svg version="1.0" xmlns="http://www.w3.org/2000/svg"
 width="1280.000000pt" height="1280.000000pt" viewBox="0 0 1280.000000 1280.000000"
 preserveAspectRatio="xMidYMid meet">
<metadata>
Created by potrace 1.15, written by Peter Selinger 2001-2017
</metadata>
<g transform="translate(0.000000,1280.000000) scale(0.100000,-0.100000)"
fill="#000000" stroke="none">
<path d="M5510 12629 c-412 -51 -836 -236 -1160 -507 -94 -79 -251 -235 -322
-323 l-37 -45 306 -306 306 -305 57 66 c288 332 663 540 1049 582 363 39 689
-111 878 -403 119 -183 173 -434 159 -733 -7 -164 -23 -244 -66 -348 -85 -205
-302 -418 -517 -507 -225 -94 -440 -98 -561 -10 -23 16 -44 30 -46 30 -2 0 -7
-11 -10 -24 -10 -42 -120 -195 -222 -311 -105 -119 -170 -207 -202 -271 l-21
-42 67 -30 c553 -246 1014 -260 1434 -45 415 214 707 697 804 1328 26 167 26
542 1 705 -51 327 -141 582 -280 790 -62 93 -254 287 -366 369 -228 168 -482
278 -751 326 -112 19 -393 28 -500 14z"/>
<path d="M9640 12504 c-194 -40 -342 -93 -535 -193 -330 -171 -604 -384 -804
-626 l-61 -74 62 -35 c35 -19 209 -113 387 -209 l323 -174 86 53 c184 116 412
220 582 265 103 27 338 33 430 10 199 -49 331 -185 376 -388 24 -109 15 -287
-20 -408 -67 -226 -220 -455 -419 -626 -108 -93 -295 -218 -420 -280 -188 -95
-463 -170 -724 -199 -91 -10 -113 -16 -113 -28 0 -23 47 -174 81 -262 17 -41
69 -155 117 -254 l87 -179 105 6 c542 28 1604 540 2050 986 123 123 174 201
250 386 208 500 487 1081 720 1495 48 85 159 276 248 425 89 148 160 270 159
272 -1 1 -52 -7 -112 -17 -341 -58 -1050 -49 -2060 26 -325 24 -742 38 -795
28z"/>
<path d="M247 12363 c20 -38 100 -165 179 -283 296 -449 372 -612 475 -1027
178 -721 530 -1416 979 -1937 165 -191 404 -409 576 -524 171 -114 394 -206
576 -236 l36 -7 -16 48 c-21 64 -22 367 -3 635 l15 198 -105 107 c-347 358
-581 706 -665 988 -21 72 -26 112 -27 200 -2 185 51 307 188 433 97 89 192
134 294 140 319 18 817 -292 1238 -771 112 -128 257 -317 318 -416 21 -33 41
-61 44 -61 3 0 109 147 235 326 206 294 227 327 214 342 -75 87 -290 352 -404
497 -172 219 -268 332 -384 450 -370 379 -640 572 -934 670 -236 78 -307 84
-1116 95 -865 11 -1193 33 -1450 96 -104 26 -256 78 -274 95 -26 24 -22 3 11
-58z"/>
<path d="M7420 11581 c0 -16 170 -742 175 -751 4 -6 17 -10 29 -10 39 0 195
-49 287 -89 172 -75 438 -247 648 -418 127 -104 372 -348 459 -460 l64 -80 76
23 c42 14 136 40 207 60 171 46 251 77 322 123 99 64 102 43 -48 283 -156 250
-190 298 -293 416 -200 230 -461 424 -793 591 -274 137 -555 224 -915 285
-196 33 -218 36 -218 27z"/>
<path d="M6180 11476 c-236 -103 -443 -235 -652 -418 -520 -454 -901 -942
-1348 -1728 l-77 -136 48 -340 c26 -186 48 -342 49 -346 0 -13 101 30 159 68
82 53 308 286 451 465 69 86 195 252 280 370 271 374 448 586 656 789 160 156
217 199 563 426 l276 181 -1 94 c-2 155 -75 354 -179 493 -42 57 -115 117
-139 115 -6 0 -45 -15 -86 -33z"/>
<path d="M3442 10503 c-78 -255 -108 -365 -158 -568 -180 -737 -183 -1430 -10
-1950 46 -136 115 -298 167 -391 l31 -55 27 17 c43 27 75 60 276 280 227 248
314 336 355 361 16 9 30 21 30 26 0 5 -18 75 -40 155 -73 266 -128 563 -151
817 -20 224 3 464 68 714 19 75 37 147 40 160 5 20 -35 64 -283 312 -159 159
-291 289 -295 289 -3 0 -28 -75 -57 -167z"/>
<path d="M7770 10488 c0 -199 34 -515 77 -723 34 -168 137 -521 270 -930 112
-347 217 -773 248 -1010 23 -176 29 -452 16 -670 -7 -104 -14 -198 -17 -207
-6 -20 34 -44 111 -65 62 -18 317 -28 458 -18 l106 7 15 67 c92 406 65 940
-75 1471 -50 191 -95 329 -229 700 -141 393 -227 651 -260 780 -17 67 -21 107
-18 189 l3 104 -270 149 c-148 82 -307 170 -352 194 l-83 46 0 -84z"/>
<path d="M7709 9122 c-201 -212 -369 -487 -449 -731 -115 -353 -130 -787 -41
-1156 147 -605 557 -1132 1021 -1310 161 -63 229 -77 400 -82 131 -5 172 -2
265 16 214 41 414 124 610 256 502 335 832 892 931 1570 28 189 26 595 -4 781
-29 181 -87 421 -137 561 -3 9 -27 3 -82 -21 -43 -18 -157 -59 -253 -90 -171
-57 -340 -127 -340 -142 0 -4 16 -64 36 -133 84 -294 116 -559 96 -788 -28
-312 -109 -551 -253 -743 -143 -192 -342 -325 -578 -387 -80 -22 -118 -26
-231 -26 -163 0 -248 20 -390 89 -81 40 -108 60 -185 138 -119 120 -179 232
-221 416 -21 91 -30 376 -15 481 23 161 80 354 158 538 l44 104 -157 364 c-86
199 -158 363 -159 363 -1 0 -31 -30 -66 -68z"/>
<path d="M4643 8185 c-207 -37 -407 -141 -615 -319 -245 -209 -458 -581 -541
-946 -40 -172 -51 -284 -51 -495 0 -382 60 -646 218 -970 108 -219 238 -398
426 -585 272 -272 586 -473 994 -637 60 -24 111 -41 114 -38 6 5 222 679 219
681 -1 0 -69 33 -150 72 -246 118 -415 239 -596 427 -301 313 -476 669 -513
1045 -23 235 20 445 130 634 47 81 89 124 196 205 174 133 312 183 506 185 94
0 128 -4 190 -23 285 -89 476 -276 659 -647 l65 -130 340 -50 c287 -41 342
-47 345 -35 10 43 -51 310 -101 444 -201 528 -701 998 -1216 1142 -192 53
-452 70 -619 40z"/>
<path d="M4409 6908 l-173 -282 99 -94 c464 -440 917 -722 1373 -857 162 -47
260 -68 532 -110 129 -20 332 -56 450 -80 118 -24 265 -51 327 -61 l112 -18
225 218 226 218 -38 47 c-21 25 -59 76 -85 113 -127 181 -309 311 -494 354
-36 8 -143 22 -237 30 -461 38 -929 130 -1236 241 -285 103 -608 299 -837 507
-33 31 -63 56 -66 56 -2 0 -82 -127 -178 -282z"/>
<path d="M7790 5763 c-204 -256 -430 -471 -650 -618 -242 -162 -416 -225 -616
-225 -46 0 -84 -3 -84 -7 0 -5 -34 -174 -76 -376 -42 -203 -73 -371 -69 -375
12 -13 137 -14 237 -2 560 65 1298 518 1754 1077 139 169 273 385 260 418 -9
23 -94 60 -206 90 -195 50 -287 84 -356 130 -37 25 -67 45 -68 45 -1 0 -57
-71 -126 -157z"/>
<path d="M5710 5544 c0 -92 -178 -720 -355 -1249 -89 -268 -100 -328 -92 -528
13 -371 193 -979 487 -1646 69 -158 244 -527 538 -1136 244 -507 349 -761 368
-889 l7 -48 42 128 c81 243 198 488 503 1044 331 604 392 719 542 1015 356
705 527 1284 547 1845 6 187 -4 318 -37 475 -22 103 -90 325 -100 325 -11 0
-100 -70 -315 -249 -166 -138 -273 -222 -302 -235 -1 -1 -9 -78 -17 -173 -39
-408 -112 -701 -241 -968 -96 -200 -213 -333 -354 -403 -70 -35 -81 -37 -165
-37 -80 0 -97 4 -144 28 -72 38 -124 87 -178 168 -114 172 -193 428 -230 749
-20 181 -15 629 11 810 37 270 94 488 183 708 43 104 47 122 33 126 -33 10
-712 166 -721 166 -6 0 -10 -12 -10 -26z"/>
</g>
</svg>
